<svg width="18" height="18" viewBox="0 0 18 18" fill="none" xmlns="http://www.w3.org/2000/svg">
<path d="M9.00001 2.625C8.63066 2.625 8.26494 2.69775 7.92371 2.83909C7.58248 2.98043 7.27243 3.1876 7.01127 3.44876C6.7501 3.70993 6.54294 4.01997 6.40159 4.3612C6.26025 4.70243 6.18751 5.06816 6.18751 5.4375C6.18751 5.80684 6.26025 6.17257 6.40159 6.5138C6.54294 6.85503 6.7501 7.16507 7.01127 7.42624C7.27243 7.6874 7.58248 7.89457 7.92371 8.03591C8.26494 8.17725 8.63066 8.25 9.00001 8.25C9.74593 8.25 10.4613 7.95368 10.9887 7.42624C11.5162 6.89879 11.8125 6.18342 11.8125 5.4375C11.8125 4.69158 11.5162 3.97621 10.9887 3.44876C10.4613 2.92132 9.74593 2.625 9.00001 2.625ZM5.25001 9.375C4.8753 9.36634 4.50264 9.43267 4.15393 9.57009C3.80522 9.7075 3.48749 9.91323 3.21942 10.1752C2.95134 10.4371 2.73833 10.75 2.5929 11.0955C2.44747 11.4409 2.37256 11.8119 2.37256 12.1868C2.37256 12.5616 2.44747 12.9326 2.5929 13.278C2.73833 13.6235 2.95134 13.9364 3.21942 14.1983C3.48749 14.4603 3.80522 14.666 4.15393 14.8034C4.50264 14.9408 4.8753 15.0072 5.25001 14.9985C5.98448 14.9815 6.68317 14.6778 7.19663 14.1524C7.71009 13.6269 7.99756 12.9214 7.99756 12.1868C7.99756 11.4521 7.71009 10.7466 7.19663 10.2211C6.68317 9.69565 5.98448 9.39197 5.25001 9.375ZM12.75 9.375C12.3768 9.36891 12.0062 9.43714 11.6597 9.57573C11.3132 9.71431 10.9977 9.92048 10.7316 10.1822C10.4656 10.4439 10.2543 10.756 10.1101 11.1002C9.96586 11.4444 9.89158 11.8139 9.89158 12.1871C9.89158 12.5603 9.96586 12.9298 10.1101 13.274C10.2543 13.6182 10.4656 13.9303 10.7316 14.192C10.9977 14.4538 11.3132 14.6599 11.6597 14.7985C12.0062 14.9371 12.3768 15.0053 12.75 14.9993C13.4879 14.9872 14.1914 14.6856 14.709 14.1596C15.2265 13.6335 15.5166 12.9251 15.5166 12.1871C15.5166 11.4492 15.2265 10.7408 14.709 10.2147C14.1914 9.68863 13.4879 9.38705 12.75 9.375Z" fill="white"/>
</svg>
