<svg width="16" height="16" viewBox="0 0 16 16" fill="none" xmlns="http://www.w3.org/2000/svg">
<g clip-path="url(#clip0_40_89)">
<path d="M15.6981 7.28698L8.71208 0.301982C8.61643 0.206284 8.50286 0.130369 8.37786 0.0785749C8.25286 0.0267807 8.11889 0.00012207 7.98358 0.00012207C7.84828 0.00012207 7.7143 0.0267807 7.5893 0.0785749C7.4643 0.130369 7.35073 0.206284 7.25508 0.301982L5.80508 1.75198L7.64508 3.59198C7.86208 3.51789 8.09555 3.5063 8.31882 3.55853C8.5421 3.61076 8.74619 3.72471 8.90781 3.88737C9.06944 4.05004 9.18207 4.25486 9.23286 4.47847C9.28366 4.70208 9.27057 4.93546 9.19508 5.15198L10.9681 6.92598C11.2304 6.83362 11.5163 6.83334 11.7788 6.92519C12.0413 7.01703 12.2647 7.19553 12.4122 7.43128C12.5597 7.66704 12.6226 7.94599 12.5904 8.22222C12.5582 8.49845 12.4329 8.75548 12.2351 8.95098C12.0347 9.15177 11.771 9.27687 11.4887 9.30498C11.2064 9.33308 10.9232 9.26244 10.6872 9.1051C10.4512 8.94776 10.277 8.71345 10.1944 8.4421C10.1118 8.17075 10.1258 7.87915 10.2341 7.61698L8.57908 5.96298V10.316C8.69708 10.3726 8.80508 10.4496 8.90308 10.547C9.08927 10.733 9.21064 10.9741 9.24923 11.2344C9.28783 11.4948 9.2416 11.7607 9.1174 11.9927C8.99319 12.2248 8.79759 12.4107 8.55954 12.523C8.32148 12.6353 8.05361 12.668 7.79553 12.6163C7.53745 12.5646 7.30287 12.4311 7.12648 12.2358C6.9501 12.0404 6.84127 11.7935 6.8161 11.5315C6.79093 11.2694 6.85075 11.0063 6.98672 10.7809C7.12268 10.5555 7.32757 10.3799 7.57108 10.28V5.88698C7.42137 5.82564 7.28528 5.73527 7.17066 5.62108C7.05604 5.50689 6.96516 5.37114 6.90324 5.22166C6.84133 5.07219 6.80962 4.91193 6.80994 4.75014C6.81025 4.58835 6.84259 4.42822 6.90508 4.27898L5.09308 2.46498L0.303081 7.25498C0.207382 7.35063 0.131468 7.4642 0.0796735 7.5892C0.0278793 7.7142 0.0012207 7.84818 0.0012207 7.98348C0.0012207 8.11879 0.0278793 8.25277 0.0796735 8.37776C0.131468 8.50276 0.207382 8.61633 0.303081 8.71198L7.28908 15.698C7.38473 15.7937 7.4983 15.8696 7.6233 15.9214C7.7483 15.9732 7.88228 15.9998 8.01758 15.9998C8.15289 15.9998 8.28686 15.9732 8.41186 15.9214C8.53686 15.8696 8.65043 15.7937 8.74608 15.698L15.6991 8.74498C15.7949 8.64931 15.871 8.53568 15.9229 8.41059C15.9747 8.2855 16.0014 8.15141 16.0014 8.01598C16.0014 7.88056 15.9747 7.74646 15.9229 7.62137C15.871 7.49628 15.7949 7.38265 15.6991 7.28698" fill="white"/>
</g>
<defs>
<clipPath id="clip0_40_89">
<rect width="16" height="16" fill="white"/>
</clipPath>
</defs>
</svg>
