<svg width="16" height="16" viewBox="0 0 16 16" fill="none" xmlns="http://www.w3.org/2000/svg">
<path d="M14.3039 6.76932C14.3859 7.20865 14.4306 7.66798 14.4306 8.14732C14.4306 11.8967 11.9213 14.5627 8.13127 14.5627C7.26935 14.563 6.41581 14.3935 5.61943 14.0638C4.82305 13.7341 4.09945 13.2507 3.48998 12.6413C2.88051 12.0318 2.39712 11.3082 2.06744 10.5118C1.73776 9.71545 1.56825 8.8619 1.5686 7.99998C1.56825 7.13806 1.73776 6.28452 2.06744 5.48815C2.39712 4.69177 2.88051 3.96817 3.48998 3.3587C4.09945 2.74923 4.82305 2.26584 5.61943 1.93616C6.41581 1.60648 7.26935 1.43697 8.13127 1.43732C9.90327 1.43732 11.3839 2.08932 12.5199 3.14798L10.6699 4.99798V4.99332C9.98127 4.33732 9.10727 4.00065 8.13127 4.00065C5.96594 4.00065 4.20594 5.82998 4.20594 7.99598C4.20594 10.162 5.96594 11.9953 8.13127 11.9953C10.0959 11.9953 11.4333 10.8713 11.7079 9.32865H8.13127V6.76932H14.3039Z" fill="white"/>
</svg>
