<svg width="16" height="16" viewBox="0 0 16 16" fill="none" xmlns="http://www.w3.org/2000/svg">
<g clip-path="url(#clip0_40_74)">
<path d="M11.2035 0.666687C10.6167 0.672178 10.0332 0.755117 9.46812 0.913354L9.42812 0.925354C9.07233 0.864348 8.71239 0.830694 8.35146 0.824687C7.60946 0.81202 6.97146 0.986687 6.45812 1.27802C5.95146 1.10735 4.90079 0.813354 3.79345 0.87202C3.02212 0.912687 2.18079 1.14002 1.55745 1.77869C0.935454 2.41735 0.606788 3.40535 0.676121 4.75002C0.694788 5.12135 0.803454 5.72602 0.984788 6.51002C1.16479 7.29335 1.41945 8.21002 1.73612 9.04669C2.05279 9.88335 2.40012 10.636 2.94279 11.1467C3.21345 11.4027 3.58612 11.618 4.02545 11.6C4.33412 11.588 4.61345 11.4567 4.85412 11.2627C4.97145 11.4127 5.09679 11.478 5.21079 11.5387C5.35412 11.6147 5.49412 11.6667 5.63879 11.7014C6.0394 11.8041 6.45666 11.8247 6.86546 11.762C7.04346 11.7334 7.23079 11.6774 7.41746 11.5974C7.42412 11.7987 7.43212 11.996 7.44079 12.196C7.46612 12.8294 7.48279 13.414 7.67879 13.9267C7.71012 14.0107 7.79612 14.442 8.13679 14.8227C8.47679 15.204 9.14345 15.4414 9.90212 15.284C10.4375 15.1727 11.1188 14.972 11.5708 14.348C12.0175 13.7307 12.2195 12.8454 12.2595 11.4087C12.2695 11.3314 12.2815 11.2654 12.2941 11.2034L12.4008 11.2127H12.4128C12.9841 11.238 13.6041 11.1594 14.1221 10.926C14.5808 10.7194 14.9275 10.5114 15.1801 10.1414C15.2435 10.05 15.3128 9.93935 15.3315 9.74802C15.3501 9.55802 15.2381 9.25935 15.0508 9.12202C14.6755 8.84602 14.4401 8.95069 14.1875 9.00202C13.9386 9.05535 13.6861 9.08491 13.4301 9.09069C14.1588 7.90135 14.6808 6.63735 14.9788 5.51869C15.1548 4.85869 15.2541 4.25002 15.2621 3.71802C15.2701 3.18602 15.2255 2.71469 14.8968 2.30669C13.8695 1.03335 12.4248 0.681354 11.3075 0.669354C11.2728 0.668465 11.2381 0.668243 11.2035 0.668687V0.666687ZM11.1741 1.05802C12.2308 1.04802 13.5815 1.33602 14.5508 2.53802C14.7688 2.80802 14.8335 3.20269 14.8261 3.68935C14.8181 4.17535 14.7255 4.75669 14.5561 5.39402C14.2275 6.62869 13.6061 8.06735 12.7308 9.35935C12.7619 9.3809 12.7954 9.39858 12.8308 9.41202C13.0135 9.48535 13.4295 9.54802 14.2608 9.38269C14.4695 9.33935 14.6228 9.31069 14.7815 9.42802C14.8194 9.45953 14.8496 9.4994 14.8696 9.5445C14.8896 9.58961 14.8989 9.63872 14.8968 9.68802C14.888 9.76248 14.8597 9.8333 14.8148 9.89335C14.6548 10.1274 14.3375 10.3494 13.9308 10.532C13.5715 10.6947 13.0555 10.7794 12.5981 10.7847C12.3688 10.7867 12.1575 10.7694 11.9781 10.7154L11.9661 10.7114C11.8968 11.3587 11.7375 12.638 11.6341 13.2214C11.5508 13.692 11.4055 14.066 11.1275 14.346C10.8501 14.626 10.4581 14.7947 9.93012 14.9047C9.27612 15.0407 8.79945 14.894 8.49212 14.6427C8.18545 14.3927 8.04479 14.06 7.96012 13.856C7.90212 13.716 7.87212 13.534 7.84279 13.2907C7.81053 12.9994 7.78896 12.7069 7.77812 12.414C7.75899 11.9005 7.75276 11.3865 7.75945 10.8727C7.48612 11.1147 7.14612 11.276 6.78146 11.3367C6.34812 11.408 5.96012 11.338 5.72879 11.282C5.61538 11.2541 5.50571 11.2127 5.40212 11.1587C5.29412 11.1034 5.19212 11.0407 5.12412 10.9167C5.08406 10.8459 5.07125 10.7629 5.08812 10.6834C5.10995 10.6025 5.15832 10.5314 5.22545 10.4814C5.35079 10.3827 5.51545 10.328 5.76412 10.2774C6.21745 10.1874 6.37545 10.1254 6.47145 10.0514C6.55345 9.98802 6.64612 9.86002 6.81012 9.67135L6.80812 9.64669C6.51585 9.63811 6.22932 9.56334 5.97012 9.42802C5.87612 9.52402 5.39345 10.0194 4.80479 10.706C4.55745 10.9934 4.28412 11.158 3.99545 11.17C3.70679 11.182 3.44612 11.0407 3.22479 10.8327C2.78145 10.4154 2.42812 9.69735 2.12012 8.88602C1.81345 8.07402 1.56279 7.17002 1.38545 6.40002C1.20679 5.63002 1.10145 5.00935 1.08679 4.71002C1.02012 3.43735 1.32679 2.58002 1.85345 2.03935C2.38012 1.49869 3.10145 1.29335 3.80545 1.25469C5.06812 1.18402 6.26746 1.61135 6.51012 1.70335C6.97746 1.39535 7.57945 1.20335 8.33212 1.21535C8.68887 1.22031 9.04395 1.26504 9.39079 1.34869L9.40345 1.34335C9.55634 1.29135 9.71146 1.2478 9.86879 1.21269C10.2971 1.11601 10.7344 1.06462 11.1735 1.05935L11.1741 1.05802ZM11.2695 1.46735H11.1781C10.8174 1.47221 10.458 1.5115 10.1048 1.58469C10.8059 1.89007 11.422 2.36194 11.8995 2.95935C12.1887 3.31675 12.4286 3.71139 12.6128 4.13269C12.6821 4.29402 12.7288 4.43069 12.7548 4.53602C12.7681 4.58935 12.7775 4.63402 12.7801 4.68069C12.7826 4.71022 12.7801 4.73996 12.7728 4.76869L12.7688 4.77669C12.7881 5.31202 12.6515 5.67469 12.6348 6.18535C12.6221 6.55602 12.7195 6.99135 12.7435 7.46535C12.7661 7.91202 12.7108 8.40202 12.4121 8.88335C12.437 8.91269 12.461 8.94202 12.4841 8.97135C13.2741 7.76469 13.8441 6.42869 14.1475 5.29069C14.3095 4.67735 14.3961 4.12202 14.4035 3.68202C14.4101 3.24202 14.3255 2.92269 14.2175 2.79002C13.3721 1.74135 12.2288 1.47469 11.2695 1.46735ZM8.25279 1.62335C7.50812 1.62469 6.97345 1.84335 6.56879 2.17002C6.15079 2.50802 5.87079 2.97002 5.68679 3.44402C5.50869 3.91771 5.39979 4.4146 5.36345 4.91935L5.37212 4.91469C5.59679 4.79202 5.89212 4.67002 6.20812 4.59935C6.52479 4.52869 6.86545 4.50669 7.17412 4.62269C7.48279 4.73869 7.73812 5.01202 7.83079 5.42669C8.27412 7.41735 7.69279 8.15735 7.47812 8.71535C7.39759 8.91787 7.32816 9.12462 7.27012 9.33469C7.29679 9.32713 7.32368 9.3218 7.35079 9.31869C7.4679 9.31235 7.58474 9.33526 7.69079 9.38535C7.90679 9.47202 8.05479 9.65335 8.13479 9.86135C8.15568 9.91646 8.17057 9.97424 8.17945 10.0347C8.18834 10.06 8.19257 10.086 8.19212 10.1127C8.16816 10.8739 8.17083 11.6357 8.20012 12.3967C8.21479 12.726 8.23612 13.0154 8.26346 13.244C8.29012 13.472 8.32879 13.6454 8.35345 13.704C8.43345 13.9 8.55146 14.156 8.76479 14.33C8.97812 14.504 9.28279 14.6194 9.84079 14.5034C10.3248 14.4027 10.6235 14.2634 10.8235 14.0614C11.0221 13.8607 11.1415 13.5814 11.2175 13.1527C11.3315 12.5107 11.5608 10.65 11.5881 10.2994C11.5761 10.036 11.6161 9.83269 11.7028 9.67802C11.7928 9.51935 11.9315 9.42202 12.0508 9.36935C12.1108 9.34269 12.1668 9.32535 12.2128 9.31269C12.1638 9.24488 12.1126 9.17862 12.0595 9.11402C11.8871 8.91235 11.7457 8.68608 11.6401 8.44269C11.5892 8.34256 11.5352 8.24407 11.4781 8.14735C11.3948 8.00069 11.2888 7.81735 11.1781 7.61135C10.9561 7.19869 10.7148 6.69869 10.5895 6.21135C10.4648 5.72535 10.4461 5.22202 10.7661 4.86669C11.0501 4.55135 11.5475 4.42069 12.2948 4.49402C12.2728 4.43002 12.2595 4.37669 12.2221 4.29135C12.0535 3.90401 11.833 3.54137 11.5668 3.21335C10.9335 2.42802 9.90879 1.64935 8.32479 1.62402H8.25279V1.62335ZM4.06879 1.65469C3.98879 1.65469 3.90879 1.65691 3.82879 1.66135C3.19279 1.69669 2.59145 1.87602 2.16145 2.31869C1.73012 2.76069 1.44679 3.48602 1.50812 4.68735C1.52079 4.91402 1.62279 5.55135 1.79745 6.30735C1.97212 7.06469 2.22012 7.95469 2.51745 8.74069C2.81479 9.52735 3.17612 10.212 3.51879 10.536C3.69145 10.698 3.84145 10.7634 3.97745 10.758C4.11412 10.7514 4.27812 10.6754 4.47945 10.4414C4.84612 10.0123 5.22631 9.59496 5.61945 9.19002C5.34167 8.95709 5.12784 8.65721 4.99812 8.31869C4.86946 7.98339 4.8304 7.62035 4.88479 7.26535C4.94945 6.81335 4.95812 6.39069 4.95079 6.05735C4.94279 5.73202 4.91879 5.51602 4.91879 5.38069V5.36202C4.9181 4.65744 5.04434 3.95851 5.29145 3.29869C5.46745 2.84402 5.73012 2.38202 6.12412 2.00802C5.73745 1.88469 5.05079 1.69669 4.30745 1.66135C4.22752 1.65707 4.1475 1.65485 4.06745 1.65469H4.06879ZM11.8781 4.88269C11.4508 4.88802 11.2108 4.99535 11.0848 5.13535C10.9061 5.33402 10.8895 5.68202 11.0001 6.11135C11.1108 6.54069 11.3381 7.02135 11.5528 7.42002C11.6595 7.62002 11.7635 7.80002 11.8475 7.94535C11.9321 8.09202 11.9941 8.19602 12.0315 8.28535C12.067 8.3658 12.1043 8.43935 12.1435 8.50602C12.3088 8.16669 12.3388 7.83402 12.3215 7.48669C12.2995 7.05735 12.1968 6.61802 12.2121 6.17335C12.2288 5.65335 12.3348 5.31402 12.3441 4.91202C12.1895 4.89318 12.0339 4.88338 11.8781 4.88269ZM6.69145 4.95269C6.56086 4.95368 6.43076 4.96888 6.30345 4.99802C6.05035 5.0577 5.80608 5.15002 5.57679 5.27269C5.4999 5.31269 5.42657 5.35913 5.35679 5.41202L5.34345 5.42402C5.34746 5.51335 5.36545 5.73002 5.37346 6.04802C5.38012 6.39669 5.37212 6.84135 5.30279 7.32135C5.15212 8.36669 5.93345 9.23202 6.85212 9.23335C6.90545 9.01869 6.99412 8.80135 7.08212 8.57202C7.33812 7.90335 7.84146 7.41602 7.41746 5.51269C7.34812 5.20135 7.21079 5.07535 7.02145 5.00402C6.91544 4.96721 6.80365 4.94982 6.69145 4.95269ZM11.6781 5.07735H11.7101C11.7519 5.07869 11.7897 5.08313 11.8235 5.09069C11.8541 5.09685 11.8834 5.10836 11.9101 5.12469C11.9223 5.13184 11.9328 5.14147 11.9409 5.15296C11.9491 5.16445 11.9547 5.17753 11.9575 5.19135V5.19669C11.9592 5.22599 11.9512 5.25504 11.9348 5.27935C11.9162 5.31297 11.8928 5.34373 11.8655 5.37069C11.8008 5.43925 11.7157 5.48488 11.6228 5.50069C11.5317 5.51147 11.4399 5.48898 11.3641 5.43735C11.3336 5.41721 11.306 5.39299 11.2821 5.36535C11.2619 5.34377 11.2481 5.317 11.2421 5.28802C11.2407 5.27376 11.2423 5.25936 11.2469 5.24579C11.2515 5.23221 11.259 5.21979 11.2688 5.20935C11.2901 5.18698 11.3151 5.16848 11.3428 5.15469C11.4484 5.10621 11.5626 5.07945 11.6788 5.07602L11.6781 5.07735ZM6.75279 5.18002C6.78612 5.18002 6.82101 5.18269 6.85746 5.18802C6.95345 5.20135 7.03945 5.22602 7.10479 5.26269C7.13679 5.27913 7.16479 5.30069 7.18879 5.32735C7.20123 5.34202 7.21057 5.35824 7.21679 5.37602C7.22301 5.3938 7.22501 5.41224 7.22279 5.43135C7.21673 5.4667 7.20024 5.49944 7.17545 5.52535C7.14966 5.55641 7.11932 5.58338 7.08545 5.60535C7.00267 5.66174 6.90222 5.68614 6.80279 5.67402C6.70191 5.65773 6.60916 5.60878 6.53879 5.53469C6.50953 5.50485 6.48442 5.47121 6.46412 5.43469C6.44336 5.40272 6.43418 5.3646 6.43812 5.32669C6.44745 5.26002 6.50412 5.22669 6.55812 5.20669C6.62055 5.18688 6.68608 5.17875 6.75145 5.18269L6.75279 5.18002ZM12.4595 9.66802H12.4575C12.3648 9.70135 12.2888 9.71469 12.2241 9.74135C12.1597 9.76525 12.1063 9.81199 12.0741 9.87269C12.0341 9.94269 12.0008 10.0674 12.0108 10.2794C12.0395 10.2983 12.071 10.3127 12.1041 10.322C12.2115 10.354 12.3921 10.3754 12.5941 10.372C12.9955 10.3674 13.4901 10.2767 13.7528 10.158C13.9681 10.0607 14.1681 9.93402 14.3468 9.78202C13.4688 9.95802 12.9735 9.91135 12.6688 9.78935C12.5936 9.75869 12.5232 9.71829 12.4595 9.66802ZM7.40079 9.72469H7.38745C7.35412 9.72735 7.30545 9.73802 7.21212 9.83935C6.99212 10.078 6.91612 10.2274 6.73479 10.3674C6.55479 10.5074 6.31945 10.5814 5.85012 10.6747C5.70145 10.704 5.61679 10.7367 5.55945 10.7627C5.57812 10.7774 5.57612 10.7814 5.60345 10.7954C5.67212 10.832 5.76079 10.864 5.83145 10.882C6.03345 10.9307 6.36479 10.988 6.71079 10.9307C7.05679 10.8734 7.41612 10.7127 7.72279 10.2954C7.77612 10.2234 7.78146 10.1167 7.73812 10.002C7.69346 9.88869 7.59745 9.79002 7.52945 9.76202C7.48889 9.74289 7.44539 9.73072 7.40079 9.72602V9.72469Z" fill="white"/>
</g>
<defs>
<clipPath id="clip0_40_74">
<rect width="16" height="16" fill="white"/>
</clipPath>
</defs>
</svg>
