<svg width="15" height="15" viewBox="0 0 15 15" fill="none" xmlns="http://www.w3.org/2000/svg">
<path d="M0.552913 0C0.393 0 0.247957 0.0669697 0.148696 0.17528C0.0594783 0.268008 0.00365217 0.392674 0 0.528417V0.565121C0.00182609 0.629386 0.0148696 0.690045 0.038087 0.745939C0.0388696 0.750447 0.0409565 0.755212 0.0426522 0.75972C0.0603913 0.801833 0.0836087 0.841242 0.111522 0.877045C0.121696 0.890826 0.132783 0.903705 0.144913 0.915682C0.14687 0.918515 0.149609 0.921091 0.152348 0.923924L1.91491 2.98994L7.43322 9.45702V14.6791C7.8077 14.6791 8.14787 14.5322 8.39778 14.2946L8.3987 14.2938L14.7273 6.87624C14.7347 6.868 14.7421 6.85976 14.7487 6.85061C14.782 6.80927 14.809 6.76342 14.8286 6.71294C14.8537 6.65138 14.8667 6.58531 14.8667 6.51473V0.546833C14.8667 0.402848 14.8101 0.270583 14.7171 0.174379C14.6167 0.0669697 14.4727 0 14.3129 0H0.552913Z" fill="white"/>
<path d="M0.552913 0C0.393 0 0.247957 0.0669697 0.148696 0.17528C0.0594783 0.268008 0.00365217 0.392674 0 0.528417V0.565121C0.00182609 0.629386 0.0148696 0.690045 0.038087 0.745939C0.0388696 0.750447 0.0409565 0.755212 0.0426522 0.75972C0.0603913 0.801833 0.0836087 0.841242 0.111522 0.877045C0.121696 0.890826 0.132783 0.903705 0.144913 0.915682C0.14687 0.918515 0.149609 0.921091 0.152348 0.923924L1.91491 2.98994L7.43322 9.45702V14.6791C7.8077 14.6791 8.14787 14.5322 8.39778 14.2946L8.3987 14.2938L14.7273 6.87624C14.7347 6.868 14.7421 6.85976 14.7487 6.85061C14.782 6.80927 14.809 6.76342 14.8286 6.71294C14.8537 6.65138 14.8667 6.58531 14.8667 6.51473V0.546833C14.8667 0.402848 14.8101 0.270583 14.7171 0.174379C14.6167 0.0669697 14.4727 0 14.3129 0H0.552913Z" fill="white"/>
<path fill-rule="evenodd" clip-rule="evenodd" d="M0.552913 0C0.393 0 0.247957 0.0669697 0.148696 0.17528C0.0594783 0.268008 0.00365217 0.392674 0 0.528417V0.565121C0.00182609 0.629386 0.0148696 0.690045 0.038087 0.745939C0.0388696 0.750447 0.0409565 0.755212 0.0426522 0.75972C0.0603913 0.801833 0.0836087 0.841242 0.111522 0.877045C0.121696 0.890826 0.132783 0.903705 0.144913 0.915682C0.14687 0.918515 0.149609 0.921091 0.152348 0.923924L1.91491 2.98994L7.43322 9.45702V14.6791C7.8077 14.6791 8.14787 14.5322 8.39778 14.2946L8.3987 14.2938L14.7273 6.87624C14.7347 6.868 14.7421 6.85976 14.7487 6.85061C14.782 6.80927 14.809 6.76342 14.8286 6.71294C14.8537 6.65138 14.8667 6.58531 14.8667 6.51473V0.546833C14.8667 0.402848 14.8101 0.270583 14.7171 0.174379C14.6167 0.0669697 14.4727 0 14.3129 0H0.552913Z" fill="white"/>
<path fill-rule="evenodd" clip-rule="evenodd" d="M7.43335 12.446L7.43322 14.6791C7.05874 14.6791 6.71883 14.5322 6.46891 14.2946L6.468 14.2937L0.148697 6.88727C0.145045 6.88444 0.142176 6.88083 0.139436 6.87723L0.115306 6.84876C0.11335 6.84683 0.111523 6.84503 0.109697 6.84232C0.0799582 6.80292 0.0547843 6.75977 0.0371756 6.71289C0.0148713 6.657 0.00182778 6.59647 1.69756e-06 6.5331V6.4964C0.00378431 6.35885 0.05948 6.23586 0.148697 6.14236C0.249002 6.03495 0.393002 5.96798 0.552915 5.96798H1.90383L7.43244 12.4469L7.43335 12.446Z" fill="white"/>
<path fill-rule="evenodd" clip-rule="evenodd" d="M7.43322 9.45702L7.43335 12.446L7.43244 12.4469L1.90383 5.96798L0.138392 3.90016C0.131087 3.89179 0.123652 3.88265 0.116087 3.8735C0.0836089 3.83216 0.0567394 3.78631 0.0371742 3.73583C0.0148698 3.67993 0.00182633 3.61927 2.38419e-07 3.55514V3.51843C0.00378285 3.38179 0.0594785 3.2588 0.148696 3.16517C0.248087 3.05699 0.393 2.99002 0.552913 2.99002L1.91491 2.98994L7.43322 9.45702Z" fill="white"/>
</svg>
