<svg width="16" height="16" viewBox="0 0 16 16" fill="none" xmlns="http://www.w3.org/2000/svg">
<path d="M7.99992 6.73998C8.68659 6.73998 9.24659 7.29998 9.24659 7.99998C9.24659 8.66665 8.68659 9.23331 7.99992 9.23331C7.31325 9.23331 6.75325 8.66665 6.75325 7.99998C6.75325 7.29998 7.31325 6.73998 7.99992 6.73998ZM4.91325 13.3333C5.33325 13.5866 6.25325 13.2 7.31325 12.2C6.96659 11.8066 6.62659 11.38 6.30659 10.9333C5.7694 10.8815 5.23532 10.8014 4.70659 10.6933C4.36659 12.12 4.49325 13.1 4.91325 13.3333ZM5.38659 9.50665L5.19325 9.16665C5.11992 9.35998 5.04659 9.55331 4.99992 9.73998C5.17992 9.77998 5.37992 9.81331 5.58659 9.84665L5.38659 9.50665ZM9.74659 8.99998L10.2866 7.99998L9.74659 6.99998C9.54659 6.64665 9.33325 6.33331 9.13992 6.01998C8.77992 5.99998 8.39992 5.99998 7.99992 5.99998C7.59992 5.99998 7.21992 5.99998 6.85992 6.01998C6.66659 6.33331 6.45325 6.64665 6.25325 6.99998L5.71325 7.99998L6.25325 8.99998C6.45325 9.35331 6.66659 9.66665 6.85992 9.97998C7.21992 9.99998 7.59992 9.99998 7.99992 9.99998C8.39992 9.99998 8.77992 9.99998 9.13992 9.97998C9.33325 9.66665 9.54659 9.35331 9.74659 8.99998ZM7.99992 4.51998C7.87325 4.66665 7.73992 4.81998 7.60659 4.99998H8.39325C8.25992 4.81998 8.12659 4.66665 7.99992 4.51998ZM7.99992 11.48C8.12659 11.3333 8.25992 11.18 8.39325 11H7.60659C7.73992 11.18 7.87325 11.3333 7.99992 11.48ZM11.0799 2.66665C10.6666 2.41331 9.74659 2.79998 8.68659 3.79998C9.03325 4.19331 9.37325 4.61998 9.69325 5.06665C10.2399 5.11998 10.7799 5.19998 11.2933 5.30665C11.6333 3.87998 11.5066 2.89998 11.0799 2.66665ZM10.6133 6.49331L10.8066 6.83331C10.8799 6.63998 10.9533 6.44665 10.9999 6.25998C10.8199 6.21998 10.6199 6.18664 10.4133 6.15331L10.6133 6.49331ZM11.5799 1.79331C12.5599 2.35331 12.6666 3.82664 12.2533 5.54664C13.9466 6.04664 15.1666 6.87331 15.1666 7.99998C15.1666 9.12665 13.9466 9.95331 12.2533 10.4533C12.6666 12.1733 12.5599 13.6466 11.5799 14.2066C10.6066 14.7666 9.27992 14.1266 7.99992 12.9066C6.71992 14.1266 5.39325 14.7666 4.41325 14.2066C3.43992 13.6466 3.33325 12.1733 3.74659 10.4533C2.05325 9.95331 0.833252 9.12665 0.833252 7.99998C0.833252 6.87331 2.05325 6.04664 3.74659 5.54664C3.33325 3.82664 3.43992 2.35331 4.41325 1.79331C5.39325 1.23331 6.71992 1.87331 7.99992 3.09331C9.27992 1.87331 10.6066 1.23331 11.5799 1.79331ZM11.3866 7.99998C11.6133 8.49998 11.8133 8.99998 11.9799 9.50665C13.3799 9.08665 14.1666 8.48665 14.1666 7.99998C14.1666 7.51331 13.3799 6.91331 11.9799 6.49331C11.8133 6.99998 11.6133 7.49998 11.3866 7.99998ZM4.61325 7.99998C4.38659 7.49998 4.18659 6.99998 4.01992 6.49331C2.61992 6.91331 1.83325 7.51331 1.83325 7.99998C1.83325 8.48665 2.61992 9.08665 4.01992 9.50665C4.18659 8.99998 4.38659 8.49998 4.61325 7.99998ZM10.6133 9.50665L10.4133 9.84665C10.6199 9.81331 10.8199 9.77998 10.9999 9.73998C10.9533 9.55331 10.8799 9.35998 10.8066 9.16665L10.6133 9.50665ZM8.68659 12.2C9.74659 13.2 10.6666 13.5866 11.0799 13.3333C11.5066 13.1 11.6333 12.12 11.2933 10.6933C10.7799 10.8 10.2399 10.88 9.69325 10.9333C9.37325 11.38 9.03325 11.8066 8.68659 12.2ZM5.38659 6.49331L5.58659 6.15331C5.37992 6.18664 5.17992 6.21998 4.99992 6.25998C5.04659 6.44665 5.11992 6.63998 5.19325 6.83331L5.38659 6.49331ZM7.31325 3.79998C6.25325 2.79998 5.33325 2.41331 4.91325 2.66665C4.49325 2.89998 4.36659 3.87998 4.70659 5.30665C5.23532 5.19854 5.7694 5.11843 6.30659 5.06665C6.62659 4.61998 6.96659 4.19331 7.31325 3.79998Z" fill="black"/>
</svg>
