<svg width="16" height="16" viewBox="0 0 16 16" fill="none" xmlns="http://www.w3.org/2000/svg">
<path d="M4.35136 9.67597C4.35013 10.0233 4.21156 10.3561 3.96588 10.6016C3.7202 10.8472 3.38737 10.9856 3.04003 10.9866C2.69245 10.9858 2.35935 10.8473 2.11351 10.6016C1.86767 10.3559 1.72908 10.0229 1.72803 9.6753C1.72803 8.9533 2.31803 8.3633 3.04003 8.3633H4.35136V9.67597ZM5.01269 9.67597C5.01269 8.95397 5.60269 8.36397 6.32469 8.36397C7.04669 8.36397 7.63603 8.95397 7.63603 9.67597V12.9606C7.63515 13.3082 7.49673 13.6413 7.25102 13.8872C7.0053 14.133 6.67227 14.2716 6.32469 14.2726C5.977 14.2718 5.6438 14.1332 5.39794 13.8874C5.15209 13.6415 5.01357 13.3083 5.01269 12.9606V9.67597ZM6.32469 4.3513C5.97712 4.35043 5.64402 4.21201 5.39818 3.96629C5.15234 3.72058 5.01375 3.38755 5.01269 3.03997C5.01269 2.31797 5.60269 1.72864 6.32469 1.72864C7.04669 1.72864 7.63603 2.31797 7.63603 3.03997V4.35197L6.32469 4.3513ZM6.32469 5.01264C7.04669 5.01264 7.63603 5.60197 7.63603 6.32397C7.63515 6.67155 7.49673 7.00465 7.25102 7.25049C7.0053 7.49633 6.67227 7.63492 6.32469 7.63597H3.04003C2.69233 7.63509 2.35913 7.49658 2.11328 7.25072C1.86742 7.00487 1.72891 6.67166 1.72803 6.32397C1.72803 5.60197 2.31803 5.01264 3.04003 5.01264H6.32469ZM11.6487 6.32397C11.6487 5.60197 12.2387 5.01264 12.9607 5.01264C13.6827 5.01264 14.2727 5.60197 14.2727 6.32397C14.2718 6.67166 14.1333 7.00487 13.8874 7.25072C13.6416 7.49658 13.3084 7.63509 12.9607 7.63597H11.6487V6.32397ZM10.988 6.32397C10.9871 6.67166 10.8486 7.00487 10.6028 7.25072C10.3569 7.49658 10.0237 7.63509 9.67603 7.63597C9.32833 7.63509 8.99513 7.49658 8.74928 7.25072C8.50342 7.00487 8.36491 6.67166 8.36403 6.32397V3.03997C8.36403 2.31797 8.95403 1.72864 9.67603 1.72864C10.398 1.72864 10.988 2.31797 10.988 3.03997V6.32397ZM9.67603 11.6486C10.398 11.6486 10.988 12.2386 10.988 12.9606C10.9871 13.3083 10.8486 13.6415 10.6028 13.8874C10.3569 14.1332 10.0237 14.2718 9.67603 14.2726C9.32833 14.2718 8.99513 14.1332 8.74928 13.8874C8.50342 13.6415 8.36491 13.3083 8.36403 12.9606V11.6486H9.67603ZM9.67603 10.9873C9.32845 10.9864 8.99535 10.848 8.74951 10.6023C8.50367 10.3566 8.36508 10.0235 8.36403 9.67597C8.36403 8.95397 8.95403 8.36397 9.67603 8.36397H12.9607C13.6827 8.36397 14.2727 8.95397 14.2727 9.67597C14.2716 10.0235 14.1331 10.3566 13.8872 10.6023C13.6414 10.848 13.3083 10.9864 12.9607 10.9873H9.67603Z" fill="white"/>
</svg>
