<svg width="16" height="16" viewBox="0 0 16 16" fill="none" xmlns="http://www.w3.org/2000/svg">
<path d="M7.99992 4C6.21992 4 5.11325 4.88667 4.66659 6.66667C5.33325 5.78 6.11325 5.44667 6.99992 5.66667C7.50659 5.79333 7.87325 6.16 8.27325 6.56667C8.92659 7.23333 9.66659 8 11.3333 8C13.1133 8 14.2199 7.11333 14.6666 5.33333C13.9999 6.22 13.2199 6.55333 12.3333 6.33333C11.8266 6.20667 11.4666 5.84 11.0599 5.43333C10.4066 4.76667 9.66659 4 7.99992 4ZM4.66659 8C2.88659 8 1.77992 8.88667 1.33325 10.6667C1.99992 9.78 2.77992 9.44667 3.66659 9.66667C4.17325 9.79333 4.53325 10.16 4.93992 10.5667C5.59325 11.2333 6.33325 12 7.99992 12C9.77992 12 10.8866 11.1133 11.3333 9.33333C10.6666 10.22 9.88659 10.5533 8.99992 10.3333C8.49325 10.2067 8.13325 9.84 7.72659 9.43333C7.07325 8.76667 6.33325 8 4.66659 8Z" fill="white"/>
</svg>
