<svg width="20" height="16" viewBox="0 0 20 16" fill="none" xmlns="http://www.w3.org/2000/svg">
<g clip-path="url(#clip0_28_99)">
<path d="M3.08433 11.0118L2.03911 11.3936L1.98291 14.5032L5.60125 13.1813C4.36028 12.7646 3.45397 12.031 3.08433 11.0118Z" fill="white"/>
<path d="M3.63133 7.72293L0.00463867 9.04781L2.03906 11.3936L3.08429 11.0118C2.71574 9.99556 2.94302 8.84676 3.63133 7.72293Z" fill="white"/>
<path d="M9.73438 3.23605C5.11615 4.92315 2.13883 8.40444 3.08431 11.0118L19.8084 4.90223C18.8629 2.29486 14.3526 1.54887 9.73438 3.23589" fill="white"/>
<path d="M13.1585 12.6781C17.7767 10.991 20.7597 7.52506 19.8085 4.90231L3.08447 11.0118C4.03558 13.6346 8.54032 14.3651 13.1585 12.6781Z" fill="white"/>
<path d="M19.8085 4.90225L3.08447 11.0119C3.41197 11.9149 4.66075 12.3598 6.41302 12.3598C8.12127 12.3598 10.308 11.9373 12.5878 11.1045C17.2061 9.41737 20.4553 6.68582 19.8085 4.90241" fill="white"/>
<path d="M16.4801 3.55435C14.7717 3.55435 12.5849 3.97691 10.3051 4.80969C5.687 6.49679 2.43775 9.22834 3.08446 11.0118L19.8085 4.90225C19.4811 3.99923 18.2322 3.55435 16.4801 3.55435Z" fill="white"/>
<path d="M15.5563 14.6679H15.5562C15.0641 14.6679 14.3382 14.2234 13.3986 13.3468C12.2868 12.3098 11.0134 10.7909 9.81285 9.06982C8.61223 7.34884 7.62569 5.62833 7.03494 4.22517C6.39127 2.69596 6.29949 1.75571 6.76216 1.43056C6.86362 1.3593 6.98593 1.32324 7.12556 1.32324C7.50191 1.32324 8.23518 1.60344 9.59112 2.93831L9.62078 2.9675L9.61672 3.00894C9.60745 3.10474 9.59897 3.20061 9.59127 3.29655L9.57621 3.48512L9.44314 3.35111C7.98222 1.87926 7.3391 1.72035 7.13039 1.72035C7.07084 1.72035 7.02347 1.73245 6.98952 1.75633C6.78878 1.89737 6.7759 2.58794 7.3999 4.07032C7.98011 5.44851 8.95229 7.14311 10.1374 8.84168C11.3226 10.5405 12.5764 12.037 13.6683 13.0555C14.8456 14.1538 15.3762 14.2723 15.5496 14.2723C15.6095 14.2723 15.6582 14.2595 15.6942 14.2341C15.906 14.0854 15.9062 13.3456 15.2103 11.75L15.1783 11.6768L15.2483 11.6386C15.3183 11.6002 15.3859 11.5625 15.4493 11.5265L15.5331 11.4789L15.5717 11.5673C16.0651 12.6978 16.5264 14.1347 15.9216 14.5599C15.8196 14.6315 15.6968 14.6679 15.5563 14.6679ZM15.5562 14.4934H15.5563L15.5562 14.5806L15.5562 14.4934Z" fill="white"/>
<path d="M13.2707 12.6304L13.2636 12.7173C13.1469 14.162 12.8394 15.8988 12.0379 15.9691C12.0217 15.9705 12.0052 15.9713 11.9883 15.9713C11.4438 15.9713 10.9287 15.1911 10.4572 13.6524C10.0111 12.1968 9.66504 10.2423 9.48256 8.14899C9.30008 6.05612 9.30282 4.07095 9.49021 2.5593C9.69462 0.912 10.0835 0.0516683 10.6461 0.00234146C10.6628 0.000780488 10.6801 0 10.6971 0C11.0921 0 11.6874 0.447219 12.2968 2.53065L11.899 2.60745C11.6955 1.91126 11.4737 1.34501 11.2535 0.955941C11.0499 0.596059 10.8518 0.397893 10.696 0.397893C10.6908 0.397893 10.6857 0.398075 10.6806 0.398439C10.4367 0.419902 10.0815 1.01151 9.88342 2.60839C9.69938 4.09303 9.69712 6.04839 9.87718 8.11434C10.0574 10.1806 10.3978 12.1059 10.8359 13.5356C11.0321 14.1758 11.2472 14.7035 11.4582 15.0616C11.6527 15.3918 11.841 15.5736 11.9882 15.5736C11.9933 15.5736 11.9983 15.5734 12.0034 15.573C12.2367 15.5525 12.6766 14.9369 12.8616 12.7707L13.2707 12.6304Z" fill="white"/>
</g>
<defs>
<clipPath id="clip0_28_99">
<rect width="19.99" height="16" fill="white"/>
</clipPath>
</defs>
</svg>
